<mxfile host="app.diagrams.net" modified="2020-08-05T09:14:53.945Z" agent="5.0 (X11; Linux x86_64) AppleWebKit/537.36 (KHTML, like Gecko) Chrome/81.0.4044.129 Safari/537.36" etag="kIHY6EuMAi9M-3OrBB3Y" version="13.5.8" type="github">
  <diagram id="G7CadOZGUBVjXflNfe6c" name="Page-1">
    <mxGraphModel dx="868" dy="388" grid="1" gridSize="10" guides="1" tooltips="1" connect="1" arrows="1" fold="1" page="1" pageScale="1" pageWidth="850" pageHeight="1100" math="0" shadow="0">
      <root>
        <mxCell id="0" />
        <mxCell id="1" parent="0" />
        <mxCell id="1peMg-cXFdo54moqNQZG-1" value="" style="outlineConnect=0;dashed=0;verticalLabelPosition=bottom;verticalAlign=top;align=center;html=1;shape=mxgraph.aws3.inspector;fillColor=#759C3E;gradientColor=none;" vertex="1" parent="1">
          <mxGeometry x="410" y="340" width="56.25" height="54.5" as="geometry" />
        </mxCell>
        <mxCell id="1peMg-cXFdo54moqNQZG-2" value="" style="outlineConnect=0;dashed=0;verticalLabelPosition=bottom;verticalAlign=top;align=center;html=1;shape=mxgraph.aws3.ec2;fillColor=#F58534;gradientColor=none;" vertex="1" parent="1">
          <mxGeometry x="240" y="325.5" width="50" height="55" as="geometry" />
        </mxCell>
        <mxCell id="1peMg-cXFdo54moqNQZG-3" value="" style="outlineConnect=0;dashed=0;verticalLabelPosition=bottom;verticalAlign=top;align=center;html=1;shape=mxgraph.aws3.sns;fillColor=#D9A741;gradientColor=none;" vertex="1" parent="1">
          <mxGeometry x="540" y="340" width="50" height="45.5" as="geometry" />
        </mxCell>
        <mxCell id="1peMg-cXFdo54moqNQZG-5" value="&lt;b&gt;&lt;font style=&quot;font-size: 10px&quot;&gt;VULNERABLE EC2&lt;/font&gt;&lt;/b&gt;" style="text;html=1;strokeColor=none;fillColor=none;align=center;verticalAlign=middle;whiteSpace=wrap;rounded=0;" vertex="1" parent="1">
          <mxGeometry x="210" y="380.5" width="120" height="20" as="geometry" />
        </mxCell>
        <mxCell id="1peMg-cXFdo54moqNQZG-6" value="&lt;b&gt;INSPECTOR&lt;/b&gt;" style="text;html=1;strokeColor=none;fillColor=none;align=center;verticalAlign=middle;whiteSpace=wrap;rounded=0;" vertex="1" parent="1">
          <mxGeometry x="378.13" y="394.5" width="120" height="20" as="geometry" />
        </mxCell>
        <mxCell id="1peMg-cXFdo54moqNQZG-7" value="&lt;b&gt;SNS&lt;/b&gt;" style="text;html=1;strokeColor=none;fillColor=none;align=center;verticalAlign=middle;whiteSpace=wrap;rounded=0;" vertex="1" parent="1">
          <mxGeometry x="505" y="385.5" width="120" height="20" as="geometry" />
        </mxCell>
        <mxCell id="1peMg-cXFdo54moqNQZG-8" value="" style="endArrow=classic;html=1;" edge="1" parent="1">
          <mxGeometry width="50" height="50" relative="1" as="geometry">
            <mxPoint x="340" y="359.5" as="sourcePoint" />
            <mxPoint x="390" y="360" as="targetPoint" />
          </mxGeometry>
        </mxCell>
        <mxCell id="1peMg-cXFdo54moqNQZG-9" value="" style="endArrow=classic;html=1;" edge="1" parent="1">
          <mxGeometry width="50" height="50" relative="1" as="geometry">
            <mxPoint x="470" y="359.5" as="sourcePoint" />
            <mxPoint x="519.5" y="360" as="targetPoint" />
          </mxGeometry>
        </mxCell>
        <mxCell id="1peMg-cXFdo54moqNQZG-12" value="" style="rounded=1;arcSize=10;dashed=1;strokeColor=#F59D56;fillColor=none;gradientColor=none;dashPattern=8 4;strokeWidth=2;" vertex="1" parent="1">
          <mxGeometry x="220" y="310" width="100" height="100" as="geometry" />
        </mxCell>
        <mxCell id="1peMg-cXFdo54moqNQZG-13" value="" style="rounded=1;arcSize=10;dashed=0;fillColor=none;gradientColor=none;strokeWidth=2;" vertex="1" parent="1">
          <mxGeometry x="210" y="300" width="120" height="120" as="geometry" />
        </mxCell>
        <mxCell id="1peMg-cXFdo54moqNQZG-14" value="" style="dashed=0;html=1;shape=mxgraph.aws3.virtual_private_cloud;fillColor=#F58536;gradientColor=none;dashed=0;" vertex="1" parent="1">
          <mxGeometry x="210" y="274" width="40" height="26" as="geometry" />
        </mxCell>
        <mxCell id="1peMg-cXFdo54moqNQZG-17" value="" style="outlineConnect=0;dashed=0;verticalLabelPosition=bottom;verticalAlign=top;align=center;html=1;shape=mxgraph.aws3.email;fillColor=#D9A741;gradientColor=none;" vertex="1" parent="1">
          <mxGeometry x="670" y="342.75" width="50" height="40" as="geometry" />
        </mxCell>
        <mxCell id="1peMg-cXFdo54moqNQZG-19" value="&lt;b&gt;EMAIL&lt;/b&gt;" style="text;html=1;strokeColor=none;fillColor=none;align=center;verticalAlign=middle;whiteSpace=wrap;rounded=0;" vertex="1" parent="1">
          <mxGeometry x="635" y="385.5" width="120" height="20" as="geometry" />
        </mxCell>
        <mxCell id="1peMg-cXFdo54moqNQZG-21" value="&lt;b&gt;ALERT&lt;/b&gt;" style="text;html=1;strokeColor=none;fillColor=none;align=center;verticalAlign=middle;whiteSpace=wrap;rounded=0;" vertex="1" parent="1">
          <mxGeometry x="305" y="330" width="120" height="20" as="geometry" />
        </mxCell>
        <mxCell id="1peMg-cXFdo54moqNQZG-23" value="" style="endArrow=classic;html=1;" edge="1" parent="1">
          <mxGeometry width="50" height="50" relative="1" as="geometry">
            <mxPoint x="564.75" y="414.5" as="sourcePoint" />
            <mxPoint x="565" y="470" as="targetPoint" />
          </mxGeometry>
        </mxCell>
        <mxCell id="1peMg-cXFdo54moqNQZG-34" value="" style="outlineConnect=0;dashed=0;verticalLabelPosition=bottom;verticalAlign=top;align=center;html=1;shape=mxgraph.aws3.lambda_function;fillColor=#F58534;gradientColor=none;" vertex="1" parent="1">
          <mxGeometry x="545" y="480" width="40" height="41" as="geometry" />
        </mxCell>
        <mxCell id="1peMg-cXFdo54moqNQZG-36" value="" style="edgeStyle=segmentEdgeStyle;endArrow=classic;html=1;" edge="1" parent="1">
          <mxGeometry width="50" height="50" relative="1" as="geometry">
            <mxPoint x="530" y="510" as="sourcePoint" />
            <mxPoint x="260" y="430" as="targetPoint" />
          </mxGeometry>
        </mxCell>
        <mxCell id="1peMg-cXFdo54moqNQZG-37" value="" style="endArrow=classic;html=1;" edge="1" parent="1">
          <mxGeometry width="50" height="50" relative="1" as="geometry">
            <mxPoint x="610" y="362.25" as="sourcePoint" />
            <mxPoint x="660" y="362.25" as="targetPoint" />
          </mxGeometry>
        </mxCell>
        <mxCell id="1peMg-cXFdo54moqNQZG-38" value="&lt;b&gt;FIX THE ISSUE&lt;/b&gt;" style="text;html=1;strokeColor=none;fillColor=none;align=center;verticalAlign=middle;whiteSpace=wrap;rounded=0;" vertex="1" parent="1">
          <mxGeometry x="330" y="480" width="160" height="20" as="geometry" />
        </mxCell>
        <mxCell id="1peMg-cXFdo54moqNQZG-39" value="" style="endArrow=classic;html=1;" edge="1" parent="1">
          <mxGeometry width="50" height="50" relative="1" as="geometry">
            <mxPoint x="229.5" y="430" as="sourcePoint" />
            <mxPoint x="230" y="490" as="targetPoint" />
          </mxGeometry>
        </mxCell>
        <mxCell id="1peMg-cXFdo54moqNQZG-40" value="" style="outlineConnect=0;dashed=0;verticalLabelPosition=bottom;verticalAlign=top;align=center;html=1;shape=mxgraph.aws3.sns;fillColor=#D9A741;gradientColor=none;" vertex="1" parent="1">
          <mxGeometry x="205" y="500" width="50" height="45.5" as="geometry" />
        </mxCell>
        <mxCell id="1peMg-cXFdo54moqNQZG-41" value="&lt;b&gt;SNS&lt;/b&gt;" style="text;html=1;strokeColor=none;fillColor=none;align=center;verticalAlign=middle;whiteSpace=wrap;rounded=0;" vertex="1" parent="1">
          <mxGeometry x="170" y="550" width="120" height="20" as="geometry" />
        </mxCell>
        <mxCell id="1peMg-cXFdo54moqNQZG-42" value="" style="endArrow=classic;html=1;" edge="1" parent="1">
          <mxGeometry width="50" height="50" relative="1" as="geometry">
            <mxPoint x="275" y="535" as="sourcePoint" />
            <mxPoint x="440" y="535" as="targetPoint" />
          </mxGeometry>
        </mxCell>
        <mxCell id="1peMg-cXFdo54moqNQZG-43" value="" style="outlineConnect=0;dashed=0;verticalLabelPosition=bottom;verticalAlign=top;align=center;html=1;shape=mxgraph.aws3.email;fillColor=#D9A741;gradientColor=none;" vertex="1" parent="1">
          <mxGeometry x="448.13" y="510" width="50" height="40" as="geometry" />
        </mxCell>
        <mxCell id="1peMg-cXFdo54moqNQZG-44" value="&lt;b&gt;EMAIL&lt;/b&gt;" style="text;html=1;strokeColor=none;fillColor=none;align=center;verticalAlign=middle;whiteSpace=wrap;rounded=0;" vertex="1" parent="1">
          <mxGeometry x="413.13" y="550" width="120" height="20" as="geometry" />
        </mxCell>
        <mxCell id="1peMg-cXFdo54moqNQZG-45" value="&lt;b&gt;ISSUE HAS BEEN FIXED&lt;/b&gt;" style="text;html=1;strokeColor=none;fillColor=none;align=center;verticalAlign=middle;whiteSpace=wrap;rounded=0;" vertex="1" parent="1">
          <mxGeometry x="280" y="540" width="160" height="20" as="geometry" />
        </mxCell>
        <mxCell id="1peMg-cXFdo54moqNQZG-48" value="&lt;b&gt;ALERT&lt;/b&gt;" style="text;html=1;strokeColor=none;fillColor=none;align=center;verticalAlign=middle;whiteSpace=wrap;rounded=0;" vertex="1" parent="1">
          <mxGeometry x="440" y="330" width="120" height="20" as="geometry" />
        </mxCell>
        <mxCell id="1peMg-cXFdo54moqNQZG-49" value="&lt;b&gt;ALERT&lt;/b&gt;" style="text;html=1;strokeColor=none;fillColor=none;align=center;verticalAlign=middle;whiteSpace=wrap;rounded=0;" vertex="1" parent="1">
          <mxGeometry x="570" y="330" width="120" height="20" as="geometry" />
        </mxCell>
        <mxCell id="1peMg-cXFdo54moqNQZG-50" value="" style="rounded=1;arcSize=10;dashed=1;fillColor=none;gradientColor=none;dashPattern=1 1;strokeWidth=2;" vertex="1" parent="1">
          <mxGeometry x="200" y="267.5" width="530" height="302.5" as="geometry" />
        </mxCell>
      </root>
    </mxGraphModel>
  </diagram>
</mxfile>
